<?xml version="1.0" standalone="no"?>
<!DOCTYPE svg PUBLIC "-//W3C//DTD SVG 20010904//EN"
 "http://www.w3.org/TR/2001/REC-SVG-20010904/DTD/svg10.dtd">
<svg version="1.0" xmlns="http://www.w3.org/2000/svg"
 width="250.000000pt" height="165.000000pt" viewBox="0 0 250.000000 165.000000"
 preserveAspectRatio="xMidYMid meet">

<g transform="translate(0.000000,165.000000) scale(0.100000,-0.100000)"
fill="#000000" stroke="none">
<path d="M2 828 l3 -823 1225 -3 c674 -1 1235 0 1248 3 l22 5 -2 818 -3 817
-1248 3 -1247 2 2 -822z m843 163 l100 -57 3 -116 3 -116 -101 -56 c-55 -31
-106 -56 -112 -56 -6 0 -56 25 -110 56 l-98 55 0 117 0 117 103 57 c56 32 104
57 107 57 3 0 50 -26 105 -58z m853 -88 l3 -52 33 6 c26 4 39 0 56 -17 19 -19
22 -30 17 -73 -7 -77 -60 -110 -115 -71 -12 8 -22 10 -22 5 0 -6 -4 -11 -10
-11 -6 0 -10 48 -10 125 0 81 -4 125 -11 125 -5 0 -7 5 -4 11 4 5 19 9 33 7
25 -3 27 -7 30 -55z m-420 10 c-3 -30 -25 -42 -34 -19 -9 22 2 46 21 46 12 0
15 -8 13 -27z m-206 9 c-9 -6 -5 -26 19 -86 23 -55 35 -74 41 -64 7 9 8 7 4
-7 -3 -11 -8 -33 -12 -48 -3 -15 -11 -26 -18 -24 -6 2 -30 48 -53 103 -23 54
-47 107 -52 117 -10 15 -6 17 36 17 28 0 43 -4 35 -8z m126 -9 c-9 -10 -23
-42 -33 -71 -9 -29 -19 -51 -21 -49 -2 2 5 29 15 60 19 53 19 57 3 67 -14 7
-10 9 17 10 32 0 33 -1 19 -17z m82 -133 c0 -69 2 -80 17 -80 12 0 14 -3 7
-10 -7 -7 -24 -7 -50 -1 -21 5 -33 9 -26 10 15 1 17 141 2 141 -5 0 -10 5 -10
10 0 6 14 10 30 10 l30 0 0 -80z m103 68 c4 -10 7 -10 18 0 18 17 64 15 79 -3
11 -13 14 -13 27 0 8 8 27 15 43 15 41 0 60 -32 60 -102 0 -34 4 -58 11 -58 5
0 7 -4 4 -10 -3 -5 -24 -10 -45 -10 -21 0 -42 5 -45 10 -3 6 -1 10 4 10 7 0
11 27 11 70 0 51 -4 70 -13 70 -26 0 -37 -25 -37 -82 0 -38 4 -58 12 -58 9 0
9 -3 1 -11 -6 -6 -25 -9 -43 -7 l-33 3 2 78 c2 59 -1 77 -11 77 -8 0 -19 -5
-26 -12 -15 -15 -16 -128 -1 -128 5 0 7 -4 4 -10 -3 -5 -21 -10 -40 -10 -19 0
-37 5 -40 10 -3 6 -1 10 4 10 7 0 11 27 11 70 0 40 -4 70 -10 70 -5 0 -10 5
-10 10 0 15 57 12 63 -2z m568 2 c16 -9 19 -22 19 -80 0 -64 11 -89 23 -57 3
7 6 6 6 -5 1 -21 -35 -33 -54 -18 -10 9 -19 9 -35 0 -31 -17 -69 -4 -76 25 -8
33 9 52 58 65 32 9 39 15 36 33 -3 24 -34 35 -51 18 -9 -9 -8 -14 3 -21 20
-12 6 -23 -19 -15 -26 8 -27 40 -3 54 22 13 68 14 93 1z"/>
<path d="M661 959 c-51 -30 -61 -40 -47 -45 12 -4 37 3 70 21 l51 28 54 -27
c83 -42 99 -24 20 24 -35 22 -68 39 -74 39 -5 -1 -39 -18 -74 -40z"/>
<path d="M683 880 c-26 -15 -33 -27 -33 -50 0 -35 2 -36 41 -13 23 14 29 25
29 50 0 18 -1 33 -2 33 -2 0 -18 -9 -35 -20z"/>
<path d="M760 865 c0 -28 6 -37 30 -50 l30 -16 0 33 c0 26 -6 37 -30 50 l-30
17 0 -34z"/>
<path d="M570 803 l0 -78 69 -37 c77 -43 81 -44 81 -24 0 8 -25 29 -55 46
l-55 31 0 64 c0 59 -8 75 -36 75 -2 0 -4 -35 -4 -77z"/>
<path d="M883 872 c-6 -4 -13 -34 -15 -67 l-3 -60 -52 -30 c-31 -18 -52 -37
-53 -47 0 -24 2 -24 75 20 l65 37 0 78 c0 42 -1 77 -2 77 -2 0 -8 -4 -15 -8z"/>
<path d="M706 774 l-28 -16 28 -18 c26 -16 32 -16 58 -2 l29 14 -24 19 c-29
22 -27 22 -63 3z"/>
<path d="M1705 817 c-4 -13 -5 -43 -3 -68 3 -39 6 -44 28 -44 24 0 25 2 25 65
0 59 -2 65 -22 68 -17 2 -24 -3 -28 -21z"/>
<path d="M1896 761 c-19 -21 -21 -61 -3 -61 20 0 37 21 37 46 0 31 -14 37 -34
15z"/>
</g>
</svg>
