<?xml version="1.0" standalone="no"?>
<!DOCTYPE svg PUBLIC "-//W3C//DTD SVG 20010904//EN"
 "http://www.w3.org/TR/2001/REC-SVG-20010904/DTD/svg10.dtd">
<svg version="1.0" xmlns="http://www.w3.org/2000/svg"
 width="250.000000pt" height="195.000000pt" viewBox="0 0 250.000000 195.000000"
 preserveAspectRatio="xMidYMid meet">

<g transform="translate(0.000000,195.000000) scale(0.100000,-0.100000)"
fill="#000000" stroke="none">
<path d="M1110 1335 l-145 -145 148 -148 147 -147 147 147 148 148 -145 145
c-80 80 -147 145 -150 145 -3 0 -70 -65 -150 -145z m150 -155 c6 0 10 53 10
132 l0 133 127 -128 128 -127 -130 -130 c-71 -72 -133 -129 -137 -128 -14 5
-258 249 -258 258 0 5 55 63 123 129 l122 121 3 -130 c1 -76 7 -130 12 -130z"/>
<path d="M566 673 c25 -54 53 -115 61 -135 11 -28 21 -38 37 -38 18 0 32 21
82 127 32 69 61 130 62 135 2 4 -5 8 -16 8 -14 0 -31 -26 -70 -112 -29 -61
-56 -108 -60 -104 -4 4 -28 53 -53 109 -36 77 -52 103 -68 105 -19 3 -17 -5
25 -95z"/>
<path d="M1014 756 c-54 -24 -64 -49 -64 -158 0 -80 3 -98 15 -98 12 0 15 16
15 80 0 84 15 132 45 144 64 24 105 -17 105 -105 0 -46 3 -59 15 -59 11 0 15
12 15 44 0 79 30 126 80 126 51 0 70 -38 70 -141 0 -82 2 -89 20 -89 18 0 20
7 20 86 0 104 -16 145 -67 169 -30 14 -42 15 -73 6 -21 -6 -43 -18 -50 -26
-10 -12 -15 -12 -38 5 -38 27 -72 32 -108 16z"/>
<path d="M1410 636 l0 -136 93 0 c109 0 172 22 183 64 9 36 -4 64 -37 81 -25
13 -28 19 -19 36 28 51 -12 76 -135 85 l-85 7 0 -137z m168 88 c23 -7 30 -38
11 -49 -5 -4 -41 -4 -80 0 -64 7 -69 9 -69 31 0 23 3 24 58 24 31 0 67 -3 80
-6z m45 -104 c35 -17 37 -57 3 -69 -13 -5 -59 -11 -102 -13 l-79 -3 -3 54 -3
54 78 -5 c43 -3 90 -11 106 -18z"/>
<path d="M1774 643 c-32 -69 -60 -130 -62 -135 -8 -19 31 -6 51 18 43 49 147
46 184 -5 14 -21 43 -29 43 -13 0 5 -27 66 -60 135 -44 93 -65 127 -78 127
-13 0 -34 -33 -78 -127z m136 -43 c0 -3 -26 -5 -59 -5 -66 0 -66 -2 -20 87
l22 43 28 -60 c15 -33 28 -62 29 -65z"/>
<path d="M850 630 c0 -123 1 -130 20 -130 19 0 20 7 20 130 0 123 -1 130 -20
130 -19 0 -20 -7 -20 -130z"/>
</g>
</svg>
